<svg width="690" height="40" viewBox="0 0 690 40" fill="none" xmlns="http://www.w3.org/2000/svg">
<rect x="0.5" y="0.5" width="689" height="39" rx="1.5" fill="white" stroke="#D9D9D9"/>
<path d="M40.5 26L39.3672 22.7734H34.8828L33.75 26H32.2734L36.4297 14.7266H37.8203L41.9766 26H40.5ZM37.1016 16.4375L35.2969 21.5781H38.9531L37.1484 16.4375H37.1016ZM48.5938 24.8828V18.9922H45.5469L45.2969 22.4141C45.2188 23.5286 44.9974 24.3307 44.6328 24.8203V24.8828H48.5938ZM43.6641 28.1484H42.3984V24.8828H43.0781C43.625 24.5234 43.9453 23.6901 44.0391 22.3828L44.3516 17.875H49.9453V24.8828H51.2344V28.1484H49.9688V26H43.6641V28.1484ZM56.4062 17.7344C57.4479 17.7344 58.2865 18.1172 58.9219 18.8828C59.5625 19.6484 59.8828 20.6667 59.8828 21.9375C59.8828 23.2031 59.5651 24.2214 58.9297 24.9922C58.2943 25.7578 57.4635 26.1406 56.4375 26.1406C55.8646 26.1406 55.3516 26.0104 54.8984 25.75C54.4453 25.4896 54.0964 25.1328 53.8516 24.6797H53.8203V28.7109H52.4609V17.875H53.75V19.25H53.7812C54.0365 18.7812 54.3932 18.4115 54.8516 18.1406C55.3099 17.8698 55.8281 17.7344 56.4062 17.7344ZM56.1406 24.9453C56.8646 24.9453 57.4375 24.6745 57.8594 24.1328C58.2812 23.5911 58.4922 22.8594 58.4922 21.9375C58.4922 21.0156 58.2812 20.2839 57.8594 19.7422C57.4375 19.2005 56.8646 18.9297 56.1406 18.9297C55.4427 18.9297 54.8802 19.2057 54.4531 19.7578C54.026 20.3099 53.8125 21.0365 53.8125 21.9375C53.8125 22.8438 54.026 23.5729 54.4531 24.125C54.8802 24.6719 55.4427 24.9453 56.1406 24.9453ZM64.6562 18.9141C64.026 18.9141 63.5026 19.1328 63.0859 19.5703C62.6745 20.0026 62.4479 20.5599 62.4062 21.2422H66.8203C66.8047 20.5547 66.599 19.9948 66.2031 19.5625C65.8073 19.1302 65.2917 18.9141 64.6562 18.9141ZM66.7891 23.6719H68.125C68.0052 24.3906 67.6302 24.9818 67 25.4453C66.375 25.9089 65.6224 26.1406 64.7422 26.1406C63.5807 26.1406 62.6667 25.7656 62 25.0156C61.3333 24.2656 61 23.25 61 21.9688C61 20.6979 61.3333 19.6745 62 18.8984C62.6719 18.1224 63.5651 17.7344 64.6797 17.7344C65.7734 17.7344 66.638 18.1016 67.2734 18.8359C67.9089 19.5703 68.2266 20.5547 68.2266 21.7891V22.3047H62.3984V22.3828C62.3984 23.1641 62.612 23.7891 63.0391 24.2578C63.4661 24.7266 64.0443 24.9609 64.7734 24.9609C65.2839 24.9609 65.7188 24.8438 66.0781 24.6094C66.4375 24.375 66.6745 24.0625 66.7891 23.6719ZM76.4609 20.375H75.1172C74.9922 19.9531 74.7552 19.6068 74.4062 19.3359C74.0573 19.0651 73.612 18.9297 73.0703 18.9297C72.362 18.9297 71.7943 19.2057 71.3672 19.7578C70.9401 20.3047 70.7266 21.0312 70.7266 21.9375C70.7266 22.8594 70.9401 23.5911 71.3672 24.1328C71.7995 24.6745 72.3724 24.9453 73.0859 24.9453C73.6172 24.9453 74.0573 24.8203 74.4062 24.5703C74.7604 24.3203 75.0026 23.9688 75.1328 23.5156H76.4766C76.3411 24.2969 75.9661 24.9297 75.3516 25.4141C74.737 25.8984 73.9792 26.1406 73.0781 26.1406C71.9427 26.1406 71.0365 25.763 70.3594 25.0078C69.6823 24.2474 69.3438 23.224 69.3438 21.9375C69.3438 20.6719 69.6823 19.6562 70.3594 18.8906C71.0365 18.1198 71.9375 17.7344 73.0625 17.7344C73.9948 17.7344 74.7604 17.9896 75.3594 18.5C75.9635 19.0104 76.3307 19.6354 76.4609 20.375ZM86.5625 24.8828V18.9922H83.5156L83.2656 22.4141C83.1875 23.5286 82.9661 24.3307 82.6016 24.8203V24.8828H86.5625ZM81.6328 28.1484H80.3672V24.8828H81.0469C81.5938 24.5234 81.9141 23.6901 82.0078 22.3828L82.3203 17.875H87.9141V24.8828H89.2031V28.1484H87.9375V26H81.6328V28.1484ZM93.7969 26.1406C92.6615 26.1406 91.75 25.763 91.0625 25.0078C90.375 24.2474 90.0312 23.224 90.0312 21.9375C90.0312 20.651 90.375 19.6302 91.0625 18.875C91.75 18.1146 92.6615 17.7344 93.7969 17.7344C94.9271 17.7344 95.8359 18.1146 96.5234 18.875C97.2109 19.6302 97.5547 20.651 97.5547 21.9375C97.5547 23.2188 97.2109 24.2396 96.5234 25C95.8359 25.7604 94.9271 26.1406 93.7969 26.1406ZM92.0547 24.1484C92.487 24.6797 93.0677 24.9453 93.7969 24.9453C94.526 24.9453 95.1042 24.6823 95.5312 24.1562C95.9583 23.625 96.1719 22.8854 96.1719 21.9375C96.1719 20.9896 95.9583 20.2526 95.5312 19.7266C95.1042 19.1953 94.526 18.9297 93.7969 18.9297C93.0677 18.9297 92.487 19.1953 92.0547 19.7266C91.6276 20.2578 91.4141 20.9948 91.4141 21.9375C91.4141 22.8802 91.6276 23.6172 92.0547 24.1484ZM105.789 20.375H104.445C104.32 19.9531 104.083 19.6068 103.734 19.3359C103.385 19.0651 102.94 18.9297 102.398 18.9297C101.69 18.9297 101.122 19.2057 100.695 19.7578C100.268 20.3047 100.055 21.0312 100.055 21.9375C100.055 22.8594 100.268 23.5911 100.695 24.1328C101.128 24.6745 101.701 24.9453 102.414 24.9453C102.945 24.9453 103.385 24.8203 103.734 24.5703C104.089 24.3203 104.331 23.9688 104.461 23.5156H105.805C105.669 24.2969 105.294 24.9297 104.68 25.4141C104.065 25.8984 103.307 26.1406 102.406 26.1406C101.271 26.1406 100.365 25.763 99.6875 25.0078C99.0104 24.2474 98.6719 23.224 98.6719 21.9375C98.6719 20.6719 99.0104 19.6562 99.6875 18.8906C100.365 18.1198 101.266 17.7344 102.391 17.7344C103.323 17.7344 104.089 17.9896 104.688 18.5C105.292 19.0104 105.659 19.6354 105.789 20.375ZM113.008 17.875V18.9922H110.383V26H109.039V18.9922H106.414V17.875H113.008ZM116.641 24.9844C117.281 24.9844 117.818 24.7865 118.25 24.3906C118.688 23.9896 118.906 23.4974 118.906 22.9141V22.25L116.734 22.3828C116.188 22.4193 115.763 22.5521 115.461 22.7812C115.164 23.0104 115.016 23.3177 115.016 23.7031C115.016 24.0885 115.164 24.3984 115.461 24.6328C115.758 24.8672 116.151 24.9844 116.641 24.9844ZM116.336 26.1406C115.529 26.1406 114.875 25.9167 114.375 25.4688C113.88 25.0208 113.633 24.4323 113.633 23.7031C113.633 23.0052 113.888 22.4479 114.398 22.0312C114.914 21.6146 115.641 21.3802 116.578 21.3281L118.906 21.1953V20.5156C118.906 20.0208 118.75 19.6328 118.438 19.3516C118.125 19.0703 117.688 18.9297 117.125 18.9297C116.609 18.9297 116.19 19.0443 115.867 19.2734C115.544 19.4974 115.339 19.8125 115.25 20.2188H113.938C113.984 19.4948 114.297 18.901 114.875 18.4375C115.458 17.9688 116.219 17.7344 117.156 17.7344C118.109 17.7344 118.865 17.974 119.422 18.4531C119.984 18.9323 120.266 19.5755 120.266 20.3828V26H118.977V24.6016H118.945C118.701 25.0651 118.341 25.4375 117.867 25.7188C117.393 26 116.883 26.1406 116.336 26.1406ZM125.43 18.9766H123.484V21.25H125.227C126.237 21.25 126.742 20.8646 126.742 20.0938C126.742 19.7344 126.63 19.4583 126.406 19.2656C126.182 19.0729 125.857 18.9766 125.43 18.9766ZM125.336 22.3438H123.484V24.8984H125.578C126.068 24.8984 126.443 24.7917 126.703 24.5781C126.964 24.3594 127.094 24.0443 127.094 23.6328C127.094 22.7734 126.508 22.3438 125.336 22.3438ZM122.141 26V17.875H125.617C126.378 17.875 126.977 18.0599 127.414 18.4297C127.852 18.7995 128.07 19.3073 128.07 19.9531C128.07 20.3646 127.94 20.7396 127.68 21.0781C127.424 21.4167 127.109 21.625 126.734 21.7031V21.7656C127.245 21.8385 127.654 22.0469 127.961 22.3906C128.273 22.7344 128.43 23.1589 128.43 23.6641C128.43 24.3828 128.18 24.9531 127.68 25.375C127.185 25.7917 126.505 26 125.641 26H122.141ZM132.742 21.7188L136.648 26H134.898L131.391 22.0938H131.328V26H129.984V17.875H131.328V21.4688H131.391L134.859 17.875H136.539L132.742 21.7188ZM139.125 26H137.781V17.875H139.125V23.9219H139.188L143.25 17.875H144.594V26H143.25V19.9531H143.188L139.125 26Z" fill="#BFBFBF"/>
<path d="M26.6377 19.8773L19.8455 13.0886L19.3902 12.6333C19.2865 12.5303 19.1462 12.4724 19 12.4724C18.8538 12.4724 18.7135 12.5303 18.6097 12.6333L11.3623 19.8773C11.256 19.9832 11.172 20.1093 11.1152 20.2481C11.0585 20.387 11.0301 20.5358 11.0318 20.6859C11.0388 21.3046 11.5539 21.7986 12.1726 21.7986H12.9197V27.5238H25.0802V21.7986H25.8431C26.1437 21.7986 26.4267 21.6808 26.6394 21.4681C26.7442 21.3637 26.8271 21.2396 26.8836 21.1029C26.94 20.9662 26.9687 20.8197 26.9681 20.6718C26.9681 20.373 26.8504 20.09 26.6377 19.8773V19.8773ZM19.9843 26.2581H18.0156V22.6722H19.9843V26.2581ZM23.8146 20.5329V26.2581H21.1093V22.2503C21.1093 21.8618 20.7947 21.5472 20.4062 21.5472H17.5937C17.2052 21.5472 16.8906 21.8618 16.8906 22.2503V26.2581H14.1853V20.5329H12.4978L19.0017 14.0343L19.4078 14.4404L25.5039 20.5329H23.8146Z" fill="#8C8C8C"/>
</svg>
